# xmcd
#
# Track frame offsets: 
#        150
#        9380
#        20778
#        31573
#        44410
#        55926
#        67072
#        78047
#        90520
#        101867
#        111655
#        125051
#
# Disc length: 1829 seconds
#
# Revision: 0
# Processed by: cddbd v1.5.2PL0 Copyright (c) Steve Scherf et al.
# Submitted via: ExactAudioCopy v1.3
#
DISCID=9d07230c
DTITLE=Rose Maddox - Alone With You
DYEAR=1963
DGENRE=Country
TTITLE0=Alone With You
TTITLE1=Let Those Brown Eyes Smile At Me
TTITLE2=If You See My Baby
TTITLE3=Long Black Limousine
TTITLE4=From A Beggar To A Queen
TTITLE5=Long Journey Home
TTITLE6=Stop The World (And Let Me Off)
TTITLE7=Curly Joe
TTITLE8=When The Sun Goes Down
TTITLE9=My Life Has Been A Pleasure
TTITLE10=Johnny's Last Kiss
TTITLE11=White Lightnin'
EXTD=
EXTT0=
EXTT1=
EXTT2=
EXTT3=
EXTT4=
EXTT5=
EXTT6=
EXTT7=
EXTT8=
EXTT9=
EXTT10=
EXTT11=
PLAYORDER=
